/* XPM */
static char *_f415f8b52a3433ddf4b9231c076173ePANp0IyDiNiDm1gI[] = {
/* columns rows colors chars-per-pixel */
"64 64 164 2 ",
"   c #020101",
".  c #0A0105",
"X  c #010900",
"o  c #080C00",
"O  c #02010B",
"+  c #08030B",
"@  c #07080D",
"#  c #09090B",
"$  c #100B0F",
"%  c #010013",
"&  c #090113",
"*  c #070019",
"=  c #0B011C",
"-  c #10041C",
";  c #170B1D",
":  c #0B0324",
">  c #04002B",
",  c #16002E",
"<  c #1F1027",
"1  c #1E0B3E",
"2  c #230D3B",
"3  c #221737",
"4  c #140143",
"5  c #1F0C44",
"6  c #1F0A4B",
"7  c #280C46",
"8  c #230B4B",
"9  c #291342",
"0  c #2A144C",
"q  c #2A1250",
"w  c #2D1060",
"e  c #321977",
"r  c #352361",
"t  c #3A216B",
"y  c #41276E",
"u  c #472674",
"i  c #422975",
"p  c #45297E",
"a  c #452781",
"s  c #452C84",
"d  c #4A2C84",
"f  c #4A2B8B",
"g  c #4B2697",
"h  c #4D2891",
"j  c #5B30A6",
"k  c #603DA1",
"l  c #603BAF",
"z  c #6F52AC",
"x  c #6848B7",
"c  c #663EC5",
"v  c #723DD3",
"b  c #753EDA",
"n  c #6947C0",
"m  c #6E46CB",
"M  c #7D51CD",
"N  c #7245D2",
"B  c #784ED6",
"V  c #754CDC",
"C  c #7F56DC",
"Z  c #7141E3",
"A  c #7E46E5",
"S  c #7B4CE5",
"D  c #7A40EA",
"F  c #7F54E3",
"G  c #7F48FB",
"H  c #8358CE",
"J  c #8250D3",
"K  c #815FD7",
"L  c #804FE7",
"P  c #8446EF",
"I  c #844EEA",
"U  c #8B4DEC",
"Y  c #8357E3",
"T  c #8956E1",
"R  c #8D5AE0",
"E  c #8551EB",
"W  c #8A55EB",
"Q  c #8759EE",
"!  c #8D58EC",
"~  c #9053EF",
"^  c #8147F1",
"/  c #854DF4",
"(  c #8A4EF7",
")  c #8447FA",
"_  c #864CFE",
"`  c #8B4DFE",
"'  c #904EFF",
"]  c #8554F3",
"[  c #8C54F5",
"{  c #8758F4",
"}  c #8B58F5",
"|  c #8652FF",
" . c #8B50FA",
".. c #8D52FA",
"X. c #8C53FA",
"o. c #8B54F8",
"O. c #8D55F9",
"+. c #8A50FC",
"@. c #8A50FD",
"#. c #8B51FD",
"$. c #8A52FD",
"%. c #8950FF",
"&. c #8B51FE",
"*. c #8A50FF",
"=. c #8B50FF",
"-. c #8952FF",
";. c #8B52FF",
":. c #8A53FF",
">. c #8E50FD",
",. c #8C52FC",
"<. c #8C51FF",
"1. c #8D51FF",
"2. c #8F50FF",
"3. c #8C52FE",
"4. c #8C52FF",
"5. c #8D52FF",
"6. c #8C53FF",
"7. c #8D53FF",
"8. c #8E52FF",
"9. c #8F52FF",
"0. c #8E53FF",
"q. c #8F53FF",
"w. c #8954FE",
"e. c #8A57FE",
"r. c #8E55FC",
"t. c #8F56FD",
"y. c #8D54FF",
"u. c #8C54FF",
"i. c #8E54FE",
"p. c #8E54FF",
"a. c #8F54FF",
"s. c #8F55FF",
"d. c #8C52FF",
"f. c #8558FD",
"g. c #8F5AFD",
"h. c #915BF1",
"j. c #9158F3",
"k. c #945DF6",
"l. c #925BF5",
"z. c #9253FA",
"x. c #9356F9",
"c. c #9051FF",
"v. c #9052FF",
"b. c #9252FF",
"n. c #9353FF",
"m. c #9054FF",
"M. c #9154FF",
"N. c #9155FF",
"B. c #9354FF",
"V. c #9355FF",
"C. c #9057FE",
"Z. c #9056FF",
"A. c #9157FF",
"S. c #9455FF",
"D. c #9555FF",
"F. c #9254FC",
"G. c #915BFB",
"H. c #9059FD",
"J. c #9359FF",
"K. c #9558FF",
"L. c #945AFF",
"P. c #925AFD",
"I. c #985DFF",
"U. c #8E60F4",
/* pixels */
"4.4.4.4.4.4.4.4.4.4.4.4.4.4.4.4.4.4.4.4.4.4.4.4.4.4.4.4.4.4.4.4.4.4.4.4.4.4.4.4.4.4.4.4.4.4.4.4.4.4.4.4.4.4.4.4.4.4.4.4.4.4.4.4.",
"4.4.4.4.4.4.4.4.4.4.4.4.4.4.4.4.4.4.4.4.4.4.4.4.4.4.4.4.4.4.4.4.4.4.4.4.4.4.4.4.4.4.4.4.4.4.4.4.4.4.4.4.4.4.4.4.4.4.4.4.4.4.4.4.",
"4.4.4.4.4.4.4.4.4.4.4.4.4.4.4.4.4.4.4.4.4.4.4.4.4.4.4.4.4.4.4.4.4.4.4.4.4.4.4.4.4.4.4.4.4.4.4.4.4.4.4.4.4.4.4.4.4.4.4.4.4.4.4.4.",
"4.4.4.4.4.4.4.4.4.4.4.4.4.4.4.4.4.4.4.4.4.4.4.4.4.4.4.4.4.4.4.4.4.4.4.4.4.4.4.4.4.4.4.4.4.4.4.4.4.4.4.4.4.4.4.4.4.4.4.4.4.4.4.4.",
"4.4.4.4.4.4.4.4.4.4.4.4.4.4.4.4.4.4.4.4.4.4.4.4.4.4.4.4.4.4.4.4.4.4.4.4.4.4.4.4.4.4.4.4.4.4.4.4.4.4.4.4.4.4.4.4.4.4.4.4.4.4.4.4.",
"4.4.4.4.4.4.4.4.4.4.4.4.4.4.4.4.4.4.4.4.4.4.4.4.4.4.4.4.4.4.4.4.4.4.4.4.4.4.4.4.4.4.4.4.4.4.4.4.4.4.4.4.4.4.4.4.4.4.4.4.4.4.4.4.",
"4.4.4.4.4.4.4.4.4.4.4.4.4.4.4.4.4.4.4.4.4.4.4.4.4.4.4.4.4.4.4.4.4.4.4.4.4.4.4.4.4.4.4.4.4.4.4.4.4.4.4.4.4.4.4.4.4.4.4.4.4.4.4.4.",
"4.4.4.4.4.4.4.4.4.4.4.4.4.4.4.4.4.4.4.4.4.4.4.4.4.4.4.4.4.4.4.4.4.4.4.4.4.4.4.4.4.4.4.4.4.4.4.4.4.4.4.4.4.4.4.4.4.4.4.4.4.4.4.4.",
"4.4.4.4.4.4.4.4.4.4.4.4.4.4.4.4.4.4.4.=.` ` =.4.4.4.4.4.4.4.4.4.4.4.4.4.4.4.4.4.Z.s.s.4.=.=.4.4.4.4.4.4.4.4.4.4.4.4.4.4.4.4.4.4.",
"4.4.4.4.4.4.4.4.4.4.4.4.4.4.4.4. .=.4.4.4.4.4.4.4.4.4.4.v.v.4.4.4.4.4.4.4.4.v.v.` ` =.=.4.4.4.4.4.4.4.4.4.4.4.4.4.4.4.4.4.4.4.4.",
"4.4.4.4.4.4.4.4.4.4.4.4.4.4.4.4.=.=.4.4.4.4.4.=. . . . . . . . . . . . . . . . .4.4.4.4.4.4.=.=.4.4.4.4.4.4.4.4.4.4.4.4.4.4.4.4.",
"4.4.4.4.4.4.4.4.4.4.4.4.4.4.4.4.4.4.=.=.=.=.` ` 4.4.4.4.4.4.4.4.4.4.4.4.4.4.4.4.s.s.4.4.4.4.=.=.4.4.4.4.4.4.4.4.4.4.4.4.4.4.4.4.",
"4.4.4.4.4.4.4.4.4.4.4.4.4.4.4.4.s.4.=.=.=.4.4.4.=.=.=.=.=.4.4.4.=.=.=.=.=.=.=.=.4.=.` ` =.4.4.s.4.4.4.4.4.4.4.4.4.4.4.4.4.4.4.4.",
"4.4.4.4.4.4.4.4.4.4.4.4.4.4.4.4.4.=.` =.s.Z.Z.s.=.=.=.=.=.=.=.4.=.=.=.=.=.=.=.=.Z.Z.s.4.4.4.4.4.4.4.4.4.4.4.4.4.4.4.4.4.4.4.4.4.",
"4.4.4.4.4.4.4.4.4.4.4.4.4.4.4.4.4.` ` 4.s.s.=.( } } } } } } } } } } } } } } } } [  .} s.s.4.=.` 4.4.4.4.4.4.4.4.4.4.4.4.4.4.4.4.",
"4.4.4.4.4.4.4.4.4.4.4.4.4.4.4.4.=.` ` 4.4.` ^ D v v v v v v v v v v v v v v v v v b A /  .s.4.4.4.4.4.4.4.4.4.4.4.4.4.4.4.4.4.4.",
"4.4.4.4.4.4.4.4.4.4.4.4.4.4.4.4.4.=.=. .z.` m   O #                                 7 4.U v.s.=.4.4.4.4.4.4.4.4.4.4.4.4.4.4.4.4.",
"4.4.4.4.4.4.4.4.4.4.4.4.4.4.4.4.4.=.=. .z.` m         O + +                         0 L.z.v.=.| 4.4.4.4.4.4.4.4.4.4.4.4.4.4.4.4.",
"4.4.4.4.4.4.4.4.4.4.4.4.4.4.4.4.4.=.=. .z.` m       + O O O O   O O O O     O O     8 _ [ `  .H.4.4.4.4.4.4.4.4.4.4.4.4.4.4.4.4.",
"4.4.4.4.4.4.4.4.4.4.4.4.4.4.4.4.4.=.=. .z.` m   .   @ O       +                 X X 0 _ [ `  .Z.4.4.4.4.4.4.4.4.4.4.4.4.4.4.4.4.",
"4.4.4.4.4.4.4.4.4.4.4.4.4.4.4.4.4.=.=.X.z.` m     O @   X     O O O O O O O O O     0 / k.` =.4.4.4.4.4.4.4.4.4.4.4.4.4.4.4.4.4.",
"4.4.4.4.4.4.4.4.4.4.4.4.4.4.4.4.4.=.=.X.z.` m   + O O       3 6 < < < < < < < < 5 9 u G h.` 4.4.4.4.4.4.4.4.4.4.4.4.4.4.4.4.4.4.",
"4.4.4.4.4.4.4.4.4.4.4.4.4.4.4.4.4.=.=.X.z.` m     O     o = z F w.w.w.w.w.w.w.w.Y H J v.h.) =.` 4.4.4.4.4.4.4.4.4.4.4.4.4.4.4.4.",
"4.4.4.4.4.4.4.4.4.4.4.4.4.4.4.4.4.=.=.X.z.` m             > B =.4.4.4.4.4.4.4.v.` 4.( ` } ` Z.s.4.4.4.4.4.4.4.4.4.4.4.4.4.4.4.4.",
"4.4.4.4.4.4.4.4.4.4.4.4.4.4.4.4.4.=.=. .z.` m       O   X   V (  . . . . . . . .` o.H.X.s.Z.) 4.4.4.4.4.4.4.4.4.4.4.4.4.4.4.4.4.",
"4.4.4.4.4.4.4.4.4.4.4.4.4.4.4.4.4.=.=. .z.` m       O       S S.` ` ` ` ` ` ` 4.Z.Z.4.` =.4.` Z.4.4.4.4.4.4.4.4.4.4.4.4.4.4.4.4.",
"4.4.4.4.4.4.4.4.4.4.4.4.4.4.4.4.4.=.=. .z.` m       +       Z ' v.v.v.v.v.v.v.v.` ` ` ` Z.` s.=.4.4.4.4.4.4.4.4.4.4.4.4.4.4.4.4.",
"4.4.4.4.4.4.4.4.4.4.4.4.4.4.4.4.4.=.=. .z.` m           O & Z S.4.4.4.4.4.4.4.4.4.4.` v.Z./ H._ 4.4.4.4.4.4.4.4.4.4.4.4.4.4.4.4.",
"4.4.4.4.4.4.4.4.4.4.4.4.4.4.4.4.4.=.=.X.z.` m           O $ c R w.w.w.w.w.w.w.w.T I Z.` 4.P L.4.4.4.4.4.4.4.4.4.4.4.4.4.4.4.4.4.",
"4.4.4.4.4.4.4.4.4.4.4.4.4.4.4.4.4.=.=. .z.` m           O X e u t t t t t t t t i g ] 4.Z.( Z.=.4.4.4.4.4.4.4.4.4.4.4.4.4.4.4.4.",
"4.4.4.4.4.4.4.4.4.4.4.4.4.4.4.4.4.=.=. .z.` m       + +   X >                   O 4 C s.L.v.=.` 4.4.4.4.4.4.4.4.4.4.4.4.4.4.4.4.",
"4.4.4.4.4.4.4.4.4.4.4.4.4.4.4.4.4.=.=. .z.` m       + O   X %   O O O       O O X : K | ` ` ` H.4.4.4.4.4.4.4.4.4.4.4.4.4.4.4.4.",
"4.4.4.4.4.4.4.4.4.4.4.4.4.4.4.4.4.=.=.X.z.` m     @   % O   O   O O O O O O O O   ; f._ ` ` R s.4.4.4.4.4.4.4.4.4.4.4.4.4.4.4.4.",
"4.4.4.4.4.4.4.4.4.4.4.4.4.4.4.4.4.=.=.X.z.` m     O   + O   O                     ; f.w.Z.` T _ 4.4.4.4.4.4.4.4.4.4.4.4.4.4.4.4.",
"4.4.4.4.4.4.4.4.4.4.4.4.4.4.4.4.4.=.=.X.z.` m     %   X     : *                 * 2 ] [ } ` W _ 4.4.4.4.4.4.4.4.4.4.4.4.4.4.4.4.",
"4.4.4.4.4.4.4.4.4.4.4.4.4.4.4.4.4.=.=.X.z.` m     %         t s f f f f f f f f p f w.] [ 4.W 4.4.4.4.4.4.4.4.4.4.4.4.4.4.4.4.4.",
"4.4.4.4.4.4.4.4.4.4.4.4.4.4.4.4.4.=.=. .z.` m     O       = n ] s.s.s.s.s.s.s.s.Q L I.=. .s.[ =.4.4.4.4.4.4.4.4.4.4.4.4.4.4.4.4.",
"4.4.4.4.4.4.4.4.4.4.4.4.4.4.4.4.4.=.=. .z.` m     O     O = V H.` ` ` ` ` ` ` ` L.=.Z.` 4.Z. .4.4.4.4.4.4.4.4.4.4.4.4.4.4.4.4.4.",
"4.4.4.4.4.4.4.4.4.4.4.4.4.4.4.4.4.=.=. .z.` m     %       & N _ 4.4.4.4.4.4.4.4.` ` ` ` 4.Z.` s.4.4.4.4.4.4.4.4.4.4.4.4.4.4.4.4.",
"4.4.4.4.4.4.4.4.4.4.4.4.4.4.4.4.4.=.=. .z.` m     %       . M  .o.o.o.o.o.o.o.o.~ S.z.s.s.s._ 4.4.4.4.4.4.4.4.4.4.4.4.4.4.4.4.4.",
"4.4.4.4.4.4.4.4.4.4.4.4.4.4.4.4.4.=.=. .z.` m     %     X . M ` =.=.=.=.=.=.=.=.z.v.Z.[ H.4._ s.4.4.4.4.4.4.4.4.4.4.4.4.4.4.4.4.",
"4.4.4.4.4.4.4.4.4.4.4.4.4.4.4.4.4.=.=.X.z.` m     O       & N _ [ [ [ [ [ [ [ [ _ ` ` _ 4.s.=.=.4.4.4.4.4.4.4.4.4.4.4.4.4.4.4.4.",
"4.4.4.4.4.4.4.4.4.4.4.4.4.4.4.4.4.=.=.X.z.` m     O     O = V g.` ` ` ` ` ` ` ` 4.H.s.4.` Z.o./ 4.4.4.4.4.4.4.4.4.4.4.4.4.4.4.4.",
"4.4.4.4.4.4.4.4.4.4.4.4.4.4.4.4.4.=.=.X.z.` m     O     O - x Y w.w.w.w.w.w.w.w.F C S Z.` X.}  .4.4.4.4.4.4.4.4.4.4.4.4.4.4.4.4.",
"4.4.4.4.4.4.4.4.4.4.4.4.4.4.4.4.4.=.=.X.z.` m     O         r t t t t t t t t t i y h o.4. .} Z.4.4.4.4.4.4.4.4.4.4.4.4.4.4.4.4.",
"4.4.4.4.4.4.4.4.4.4.4.4.4.4.4.4.4.=.=. .z.` m     O   X     = O                 % & 8 ] s.[ [ 4.4.4.4.4.4.4.4.4.4.4.4.4.4.4.4.4.",
"4.4.4.4.4.4.4.4.4.4.4.4.4.4.4.4.4.=.=. .z.` m     O   +     O                       1 { 4.[ [ _ 4.4.4.4.4.4.4.4.4.4.4.4.4.4.4.4.",
"4.4.4.4.4.4.4.4.4.4.4.4.4.4.4.4.4.=.=. .z.` m     O   O O   %   O O O O O O O O   o 1 ] _ [ k.` 4.4.4.4.4.4.4.4.4.4.4.4.4.4.4.4.",
"4.4.4.4.4.4.4.4.4.4.4.4.4.4.4.4.o._ ` ` 4.L.k + O O O O O O         O O O O O O     0 Q ` Z./ 4.4.4.4.4.4.4.4.4.4.4.4.4.4.4.4.4.",
"4.4.4.4.4.4.4.4.4.4.4.4.4.4.4.4.o.` 4. .` w.l ,                                 % * w E _ L. .s.4.4.4.4.4.4.4.4.4.4.4.4.4.4.4.4.",
"4.4.4.4.4.4.4.4.4.4.4.4.4.4.4.4.w._ 4.z.` s.V f d d d d d d d d d d d d d d d d d a j H.` Z. .=.4.4.4.4.4.4.4.4.4.4.4.4.4.4.4.4.",
"4.4.4.4.4.4.4.4.4.4.4.4.4.4.4.4.w.` 4. .` s.g.F | | | | | | | | | | | | | | | | U.W E I.` 4.=.| 4.4.4.4.4.4.4.4.4.4.4.4.4.4.4.4.",
"4.4.4.4.4.4.4.4.4.4.4.4.4.4.4.4.4.=.X.4._ _ w.w.4.4.4.4.4.4.4.4.4.4.4.4.4.4.4.4.Z.4.` v./ 4.4.w.4.4.4.4.4.4.4.4.4.4.4.4.4.4.4.4.",
"4.4.4.4.4.4.4.4.4.4.4.4.4.4.4.4._  .X.s.4. ._ `  . . . . . . . . . . . . . . . ._ ` `  . .4.=.o.4.4.4.4.4.4.4.4.4.4.4.4.4.4.4.4.",
"4.4.4.4.4.4.4.4.4.4.4.4.4.4.4.4._ } X.4.Z.l.[ ` 4.4.4.4.4.4.4.4.4.4.4.4.4.4.4.4. .4.s.O.H.=._  .4.4.4.4.4.4.4.4.4.4.4.4.4.4.4.4.",
"4.4.4.4.4.4.4.4.4.4.4.4.4.4.4.4.4.H. ._ 4.! W ` 4.4.4.4.4.4.4.4.4.4.4.4.4.4.4.4.! w.=.E } _ ` H.4.4.4.4.4.4.4.4.4.4.4.4.4.4.4.4.",
"4.4.4.4.4.4.4.4.4.4.4.4.4.4.4.4.4.4.4.4.4.4.4.4.4.4.4.4.4.4.4.4.4.4.4.4.4.4.4.4.4.4.4.4.4.4.4.4.4.4.4.4.4.4.4.4.4.4.4.4.4.4.4.4.",
"4.4.4.4.4.4.4.4.4.4.4.4.4.4.4.4.4.4.4.4.4.4.4.4.4.4.4.4.4.4.4.4.4.4.4.4.4.4.4.4.4.4.4.4.4.4.4.4.4.4.4.4.4.4.4.4.4.4.4.4.4.4.4.4.",
"4.4.4.4.4.4.4.4.4.4.4.4.4.4.4.4.4.4.4.4.4.4.4.4.4.4.4.4.4.4.4.4.4.4.4.4.4.4.4.4.4.4.4.4.4.4.4.4.4.4.4.4.4.4.4.4.4.4.4.4.4.4.4.4.",
"4.4.4.4.4.4.4.4.4.4.4.4.4.4.4.4.4.4.4.4.4.4.4.4.4.4.4.4.4.4.4.4.4.4.4.4.4.4.4.4.4.4.4.4.4.4.4.4.4.4.4.4.4.4.4.4.4.4.4.4.4.4.4.4.",
"4.4.4.4.4.4.4.4.4.4.4.4.4.4.4.4.4.4.4.4.4.4.4.4.4.4.4.4.4.4.4.4.4.4.4.4.4.4.4.4.4.4.4.4.4.4.4.4.4.4.4.4.4.4.4.4.4.4.4.4.4.4.4.4.",
"4.4.4.4.4.4.4.4.4.4.4.4.4.4.4.4.4.4.4.4.4.4.4.4.4.4.4.4.4.4.4.4.4.4.4.4.4.4.4.4.4.4.4.4.4.4.4.4.4.4.4.4.4.4.4.4.4.4.4.4.4.4.4.4.",
"4.4.4.4.4.4.4.4.4.4.4.4.4.4.4.4.4.4.4.4.4.4.4.4.4.4.4.4.4.4.4.4.4.4.4.4.4.4.4.4.4.4.4.4.4.4.4.4.4.4.4.4.4.4.4.4.4.4.4.4.4.4.4.4.",
"4.4.4.4.4.4.4.4.4.4.4.4.4.4.4.4.4.4.4.4.4.4.4.4.4.4.4.4.4.4.4.4.4.4.4.4.4.4.4.4.4.4.4.4.4.4.4.4.4.4.4.4.4.4.4.4.4.4.4.4.4.4.4.4."
};
