/* XPM */
static char *b9af663e342e4039f981c64688b43e99oj36s5kVFjUfqw7I[] = {
/* columns rows colors chars-per-pixel */
"64 64 193 2 ",
"   c #020202",
".  c #0B0102",
"X  c #010A02",
"o  c #080A02",
"O  c #01020A",
"+  c #0B010A",
"@  c #000A0B",
"#  c #130003",
"$  c #1A0202",
"%  c #100900",
"&  c #12020B",
"*  c #1A010C",
"=  c #001303",
"-  c #000112",
";  c #080413",
":  c #000910",
">  c #1B0917",
",  c #120018",
"<  c #011513",
"1  c #230200",
"2  c #2D0400",
"3  c #260B00",
"4  c #290801",
"5  c #2D030D",
"6  c #3C0700",
"7  c #360C00",
"8  c #3B0B00",
"9  c #341002",
"0  c #2A0A17",
"q  c #3B0A10",
"w  c #430500",
"e  c #4C0B07",
"r  c #4F1001",
"t  c #541301",
"y  c #5D1104",
"u  c #4F1313",
"i  c #5D1614",
"p  c #63080F",
"a  c #631616",
"s  c #611718",
"d  c #731314",
"f  c #761D17",
"g  c #7E1B17",
"h  c #7B1C1D",
"j  c #6A2118",
"k  c #7D2112",
"l  c #7F211F",
"z  c #8B0E1C",
"x  c #8C1314",
"c  c #821B16",
"v  c #86121B",
"b  c #8E1B1A",
"n  c #901817",
"m  c #9B141E",
"M  c #931C1D",
"N  c #9B191B",
"B  c #A41615",
"V  c #A8171A",
"C  c #A51E1B",
"Z  c #A81D1C",
"A  c #862115",
"S  c #81241F",
"D  c #8F241A",
"F  c #94221F",
"G  c #9E221D",
"H  c #B2211E",
"J  c #851C20",
"K  c #881F23",
"L  c #9F1E22",
"P  c #8A1D30",
"I  c #A11E23",
"U  c #AE1E24",
"Y  c #B31A2E",
"T  c #862725",
"R  c #8C2423",
"E  c #922220",
"W  c #92252A",
"Q  c #AA2524",
"!  c #A6282B",
"~  c #AD242B",
"^  c #B4292C",
"/  c #B32732",
"(  c #BC2430",
")  c #CA251F",
"_  c #D9271D",
"`  c #ED271E",
"'  c #EA281E",
"]  c #CC2721",
"[  c #CE2923",
"{  c #C1262A",
"}  c #CC262A",
"|  c #CB282B",
" . c #D32321",
".. c #DB2424",
"X. c #D12C26",
"o. c #DE2628",
"O. c #DB3028",
"+. c #D03D29",
"@. c #CA2D36",
"#. c #CD2F3D",
"$. c #CB253D",
"%. c #DC2534",
"&. c #D22930",
"*. c #D92E36",
"=. c #CE3337",
"-. c #D13334",
";. c #DB3332",
":. c #E22A22",
">. c #EA2A27",
",. c #E42A2B",
"<. c #ED2B2C",
"1. c #E4252C",
"2. c #FF2327",
"3. c #F62D25",
"4. c #FF2826",
"5. c #FE252C",
"6. c #F52D2D",
"7. c #FE2C2D",
"8. c #E23622",
"9. c #EB3126",
"0. c #E7362E",
"q. c #EE342B",
"w. c #E5382A",
"e. c #F23326",
"r. c #FB3222",
"t. c #F4332D",
"y. c #FC322D",
"u. c #F33A2D",
"i. c #FC392E",
"p. c #EC2635",
"a. c #E72933",
"s. c #EC2B30",
"d. c #E22E39",
"f. c #EB2E3A",
"g. c #FF2731",
"h. c #F32D32",
"j. c #FE2E33",
"k. c #FB2638",
"l. c #F42E3A",
"z. c #FE2D3C",
"x. c #EB3334",
"c. c #EB3439",
"v. c #EC383B",
"b. c #F53433",
"n. c #FF3333",
"m. c #FF3232",
"M. c #FF3131",
"N. c #F83533",
"B. c #FF3431",
"V. c #FF3531",
"C. c #FD3631",
"Z. c #FE3732",
"A. c #FE3632",
"S. c #FB3336",
"D. c #FA3235",
"F. c #FF3035",
"G. c #FF3135",
"H. c #FF3235",
"J. c #FF3336",
"K. c #FF3137",
"L. c #FF3535",
"P. c #FF3536",
"I. c #FC3437",
"U. c #FF3131",
"Y. c #F23D33",
"T. c #FF3833",
"R. c #FE3C33",
"E. c #FB3834",
"W. c #FE3A34",
"Q. c #F4343C",
"!. c #F83138",
"~. c #FF3139",
"^. c #FF323B",
"/. c #F93738",
"(. c #FF373A",
"). c #FE3539",
"_. c #FF333D",
"`. c #FF343B",
"'. c #F53938",
"]. c #F6393A",
"[. c #FA3A3A",
"{. c #FF393A",
"}. c #FE3A3C",
"|. c #FF393F",
" X c #FB393C",
".X c #EB402C",
"XX c #FF2C44",
"oX c #F23742",
"OX c #FF3243",
"+X c #FF3440",
"@X c #FE3340",
"#X c #FF3C42",
"$X c #FF3448",
/* pixels */
"M.M.M.M.M.M.M.M.M.M.M.M.M.M.M.M.M.M.M.M.M.M.M.M.M.M.M.M.M.M.M.M.M.M.M.M.M.M.M.M.M.M.M.M.M.M.M.M.M.M.M.M.M.M.M.M.M.M.M.M.M.M.M.M.",
"M.M.M.M.M.M.M.M.M.M.M.M.M.M.M.M.M.M.M.M.M.M.M.M.M.M.M.M.M.M.M.M.M.M.M.M.M.M.M.M.M.M.M.M.M.M.M.M.M.M.M.M.M.M.M.M.M.M.M.M.M.M.M.M.",
"M.M.M.M.M.M.M.M.M.M.M.M.M.M.M.M.M.M.M.M.M.M.M.M.M.M.M.M.M.M.M.M.M.M.M.M.M.M.M.M.M.M.M.M.M.M.M.M.M.M.M.M.M.M.M.M.M.M.M.M.M.M.M.M.",
"M.M.M.M.M.M.M.M.M.M.M.M.M.M.M.M.M.M.M.M.M.M.M.M.M.M.M.M.M.M.M.M.M.M.M.M.M.M.M.M.M.M.M.M.M.M.M.M.M.M.M.M.M.M.M.M.M.M.M.M.M.M.M.M.",
"M.M.M.M.M.M.M.M.M.M.M.M.M.M.M.M.M.M.M.M.M.M.M.M.M.M.M.M.M.M.M.M.M.M.M.M.M.M.M.M.M.M.M.M.M.M.M.M.M.M.M.M.M.M.M.M.M.M.M.M.M.M.M.M.",
"M.M.M.M.M.M.M.M.M.M.M.M.M.M.M.M.M.M.M.M.M.M.M.M.M.M.M.M.M.M.M.M.M.M.M.M.M.M.M.M.M.M.M.M.M.M.M.M.M.M.M.M.M.M.M.M.M.M.M.M.M.M.M.M.",
"M.M.M.M.M.M.M.M.M.M.M.M.M.M.M.M.M.M.M.M.M.M.M.M.M.M.M.M.M.M.M.M.M.M.M.M.M.M.M.M.M.M.M.M.M.M.M.M.M.M.M.M.M.M.M.M.M.M.M.M.M.M.M.M.",
"M.M.M.M.M.M.M.M.M.M.M.M.M.M.M.M.M.M.M.M.M.M.M.M.M.M.M.M.M.M.M.M.M.M.M.M.M.M.M.M.M.M.M.M.M.M.M.M.M.M.M.M.M.M.M.M.M.M.M.M.M.M.M.M.",
"M.M.M.M.M.M.M.M.M.M.M.M.M.M.M.M.N.N.N.N.N.N.N.b.M.M.y.y.M.M.M.M.M.M.M.M.M.M.M.M.j.F.F.j.j.F.F.j.M.M.M.M.M.M.M.M.M.M.M.M.M.M.M.M.",
"M.M.M.M.M.M.M.M.M.M.M.M.M.M.M.M.j.j.F.F.F.F.j.j.M.M.M.M.M.M.M.M.M.M.M.M.M.M.M.M.M.I.F.j.M.F.I.M.M.M.M.M.M.M.M.M.M.M.M.M.M.M.M.M.",
"M.M.M.M.M.M.M.M.M.M.M.M.M.M.M.M.7.7.7.7.j.j.j.j.M.M.M.M.M.M.M.7.M.M.M.M.M.M.M.M.y.M.y.6.6.y.M.y.M.M.M.M.M.M.M.M.M.M.M.M.M.M.M.M.",
"M.M.M.M.M.M.M.M.M.M.M.M.M.M.M.M.A.A.A.A.A.A.A.T.7.7.7.j.j.M.M.M.M.M.M.M.M.M.M.M.M.A.A.M.M.A.A.M.M.M.M.M.M.M.M.M.M.M.M.M.M.M.M.M.",
"M.M.M.M.M.M.M.M.M.M.M.M.M.M.M.M.y.y.y.y.y.y.y.A.M.M.j.7.7.M.M.A.M.M.M.M.M.M.M.M.7.7.7.M.y.7.7.7.M.M.M.M.M.M.M.M.M.M.M.M.M.M.M.M.",
"M.M.M.M.M.M.M.M.M.M.M.M.M.M.M.M.F.j.j.j.j.j.j.j.E.A.M.j.j.M.M.M.M.M.M.M.M.M.M.M.j.j.M.I.I.M.j.j.M.M.M.M.M.M.M.M.M.M.M.M.M.M.M.M.",
"M.M.M.M.M.M.M.M.M.M.M.M.M.M.M.M.{.).).S.S.S.S.I.q.t.y.M.M.M.M.M.M.M.M.M.M.M.M.M.|./.b.].].b./.{.M.M.M.M.M.M.M.M.M.M.M.M.M.M.M.M.",
"M.M.M.M.M.M.M.M.M.M.M.M.M.M.M.M.X.X.[ ] ) ) ] ] _ :.<.y.M.M.M.M.M.M.M.M.M.M.M.M.,... . . . ...,.M.M.M.M.M.M.M.M.M.M.M.M.M.M.M.M.",
"M.M.M.M.M.M.M.M.M.M.M.M.M.M.M.M.I   O       O   , X H j.z.l.I.r.M.M.M.M.M.M.M.M.}           O N M.M.M.M.M.M.M.M.M.M.M.M.M.M.M.M.",
"M.M.M.M.M.M.M.M.M.M.M.M.M.M.M.M.I   O       O   O . 7 l.h.|.9.y.M.M.M.M.M.M.M.M.}           O N M.M.M.M.M.M.M.M.M.M.M.M.M.M.M.M.",
"M.M.M.M.M.M.M.M.M.M.M.M.M.M.M.M.I   O       O     #   f OXq.t.j.M.M.M.M.M.M.M.M.}           O N M.M.M.M.M.M.M.M.M.M.M.M.M.M.M.M.",
"M.M.M.M.M.M.M.M.M.M.M.M.M.M.M.M.I   O       O     . O o f.` {.k.M.M.M.M.M.M.M.M.}             N M.M.M.M.M.M.M.M.M.M.M.M.M.M.M.M.",
"M.M.M.M.M.M.M.M.M.M.M.M.M.M.M.M.I   O     O O     . O X t g.).!.M.M.M.M.M.M.M.M.}       O   O N M.M.M.M.M.M.M.M.M.M.M.M.M.M.M.M.",
"M.M.M.M.M.M.M.M.M.M.M.M.M.M.M.M.I   O     O O   . O + @   %.j.[.M.M.M.M.M.M.M.M.}       O   O N M.M.M.M.M.M.M.M.M.M.M.M.M.M.M.M.",
"M.M.M.M.M.M.M.M.M.M.M.M.M.M.M.M.I   O     O O   .   $ X   u %.A.M.M.M.M.M.M.M.M.}       O   O N M.M.M.M.M.M.M.M.M.M.M.M.M.M.M.M.",
"M.M.M.M.M.M.M.M.M.M.M.M.M.M.M.M.I   O     O O   O . X . :   G 7.M.M.M.M.M.M.M.M.}       O   O N M.M.M.M.M.M.M.M.M.M.M.M.M.M.M.M.",
"M.M.M.M.M.M.M.M.M.M.M.M.M.M.M.M.B O   @ X # > 7 : *   X + O 1 f.F.e.7.2.[.h.~.t.}           O N M.M.M.M.M.M.M.M.M.M.M.M.M.M.M.M.",
"M.M.M.M.M.M.M.M.M.M.M.M.M.M.M.M.Z         # 0 D .   o .   X # d ~.N.M.y.b._.5.A.}           O N M.M.M.M.M.M.M.M.M.M.M.M.M.M.M.M.",
"M.M.M.M.M.M.M.M.M.M.M.M.M.M.M.M.Q O   .   . 5 c.p X < *   =     } _.y.Y.t.~.4.i.}           O N M.M.M.M.M.M.M.M.M.M.M.M.M.M.M.M.",
"M.M.M.M.M.M.M.M.M.M.M.M.M.M.M.M.Z O   #   X # z.| o X &       @ y z.q.R.7.e.F.y.}           O N M.M.M.M.M.M.M.M.M.M.M.M.M.M.M.M.",
"M.M.M.M.M.M.M.M.M.M.M.M.M.M.M.M.V O o .   =   g.~.j   O .     ;   U +X7.j.t.R.7.}       O   O N M.M.M.M.M.M.M.M.M.M.M.M.M.M.M.M.",
"M.M.M.M.M.M.M.M.M.M.M.M.M.M.M.M.V O X   O = X 6.5.=.2         #   9 $X5.7.).+.j.}       O   O N M.M.M.M.M.M.M.M.M.M.M.M.M.M.M.M.",
"M.M.M.M.M.M.M.M.M.M.M.M.M.M.M.M.C   X O .   X <.5._.b $ O O   . O   F <.j.I.0.j.}       O   O N M.M.M.M.M.M.M.M.M.M.M.M.M.M.M.M.",
"M.M.M.M.M.M.M.M.M.M.M.M.M.M.M.M.G     : & .   1.~.j.;.6 O - O X &   o x.j.O.OXM.}       O   O N M.M.M.M.M.M.M.M.M.M.M.M.M.M.M.M.",
"M.M.M.M.M.M.M.M.M.M.M.M.M.M.M.M.C O     O     | A.' _.Q   @ O     o   d #Xi.4./...    + O   O b M.M.M.M.M.M.M.M.M.M.M.M.M.M.M.M.",
"M.M.M.M.M.M.M.M.M.M.M.M.M.M.M.M.C O     O     | M.7.y.f.s X O .   .   # { g.T.N...    + O   O b M.M.M.M.M.M.M.M.M.M.M.M.M.M.M.M.",
"M.M.M.M.M.M.M.M.M.M.M.M.M.M.M.M.C O     O     | j.M.3.OX#.  X #       X w z.M.u.o.    +     O b M.M.M.M.M.M.M.M.M.M.M.M.M.M.M.M.",
"M.M.M.M.M.M.M.M.M.M.M.M.M.M.M.M.C O     O     | ~.e.y.j.OXd X +   X # O X ~ 5.i.,.    +     O M M.M.M.M.M.M.M.M.M.M.M.M.M.M.M.M.",
"M.M.M.M.M.M.M.M.M.M.M.M.M.M.M.M.C O     O     | F.6.i.e.g.d.$   .   & # = 3 p.I.<.    +     O M M.M.M.M.M.M.M.M.M.M.M.M.M.M.M.M.",
"M.M.M.M.M.M.M.M.M.M.M.M.M.M.M.M.C O     O     | 6.~.w.u.7.|.x   O #   # + X R z.h.    +     O M M.M.M.M.M.M.M.M.M.M.M.M.M.M.M.M.",
"M.M.M.M.M.M.M.M.M.M.M.M.M.M.M.M.C O     O     | e.j.S.T.y.A.a.r O #   o .   3 ( l..   + O   O M M.M.M.M.M.M.M.M.M.M.M.M.M.M.M.M.",
"M.M.M.M.M.M.M.M.M.M.M.M.M.M.M.M.C O     O     | i.>.XXj.8.7.#XU + X X   + .   a l..   + O   O M M.M.M.M.M.M.M.M.M.M.M.M.M.M.M.M.",
"M.M.M.M.M.M.M.M.M.M.M.M.M.M.M.M.C O     O     | M.M.M.M.M.M.M.M.s   O *   X   O W q .   . O   F M.M.M.M.M.M.M.M.M.M.M.M.M.M.M.M.",
"M.M.M.M.M.M.M.M.M.M.M.M.M.M.M.M.C O     O     | M.M.M.M.M.M.M.M./ 4     &   X O e $     . O   n M.M.M.M.M.M.M.M.M.M.M.M.M.M.M.M.",
"M.M.M.M.M.M.M.M.M.M.M.M.M.M.M.M.C O     O     | M.M.M.M.M.M.M.M.z.T   @ # .     .   @     O   x M.M.M.M.M.M.M.M.M.M.M.M.M.M.M.M.",
"M.M.M.M.M.M.M.M.M.M.M.M.M.M.M.M.C O     O     | M.M.M.M.M.M.M.M.j.*.2 =   *       @ @   . O   M M.M.M.M.M.M.M.M.M.M.M.M.M.M.M.M.",
"M.M.M.M.M.M.M.M.M.M.M.M.M.M.M.M.C O     O     | M.M.M.M.M.M.M.M.i.5.!   X         O O   . O   E M.M.M.M.M.M.M.M.M.M.M.M.M.M.M.M.",
"M.M.M.M.M.M.M.M.M.M.M.M.M.M.M.M.C O     O     | M.M.M.M.M.M.M.M..Xg.Q.6 X O     . O . . . O   M M.M.M.M.M.M.M.M.M.M.M.M.M.M.M.M.",
"M.M.M.M.M.M.M.M.M.M.M.M.M.M.M.M.C O     O     | M.M.M.M.M.M.M.M.Y.A.7.^ $         O .     O   m M.M.M.M.M.M.M.M.M.M.M.M.M.M.M.M.",
"M.M.M.M.M.M.M.M.M.M.M.M.M.M.M.M.C O     O     | M.M.M.M.M.M.M.M.I.9.y.+Xi   +     X       O   m M.M.M.M.M.M.M.M.M.M.M.M.M.M.M.M.",
"M.M.M.M.M.M.M.M.M.M.M.M.M.M.M.M.Y   O - -     $.M.M.M.M.M.M.M.M.j.A.y.F.| 6 X < + O @ O O   $ P M.M.M.M.M.M.M.M.M.M.M.M.M.M.M.M.",
"M.M.M.M.M.M.M.M.M.M.M.M.M.M.M.M.L   .     . % ^ M.M.M.M.M.M.M.M.7.A.y.F.v.g 1 # .     .     $ h M.M.M.M.M.M.M.M.M.M.M.M.M.M.M.M.",
"M.M.M.M.M.M.M.M.M.M.M.M.M.M.M.M.&.k x l h x A d.M.M.M.M.M.M.M.M.j.E.7.4.).-.N z c g K v J S x @.M.M.M.M.M.M.M.M.M.M.M.M.M.M.M.M.",
"M.M.M.M.M.M.M.M.M.M.M.M.M.M.M.M.g.x.g.[.].5.h.j.M.M.M.M.M.M.M.M.h.T.y.4.y.I.Q.oXb.!._.k.l.Q.h.+XM.M.M.M.M.M.M.M.M.M.M.M.M.M.M.M.",
"M.M.M.M.M.M.M.M.M.M.M.M.M.M.M.M.y.T.4.y.y.4.T.M.M.M.M.M.M.M.M.M.j.M.M.A.A.7.7.I.y.y.M.7.M.M.7.y.M.M.M.M.M.M.M.M.M.M.M.M.M.M.M.M.",
"M.M.M.M.M.M.M.M.M.M.M.M.M.M.M.M.i.T.y.y.y.y.T.t.M.M.M.M.M.M.M.M.I.7.4.T.T.7.4.y.e.7.y.i.i.y.y.q.M.M.M.M.M.M.M.M.M.M.M.M.M.M.M.M.",
"M.M.M.M.M.M.M.M.M.M.M.M.M.M.M.M.4.7.M.j.j.M.7.4.M.M.M.M.M.M.M.M.R.7.5.t.t.j.M.E.M.7.7.T.y.7.j.i.M.M.M.M.M.M.M.M.M.M.M.M.M.M.M.M.",
"M.M.M.M.M.M.M.M.M.M.M.M.M.M.M.M.M.6.].z.z.].6.j.M.M.M.M.M.M.M.M.u.7.~./.6.g.j.t.[.j.j.Y.b.5.j.N.M.M.M.M.M.M.M.M.M.M.M.M.M.M.M.M.",
"M.M.M.M.M.M.M.M.M.M.M.M.M.M.M.M.M.M.M.M.M.M.M.M.M.M.M.M.M.M.M.M.M.M.M.M.M.M.M.M.M.M.M.M.M.M.M.M.M.M.M.M.M.M.M.M.M.M.M.M.M.M.M.M.",
"M.M.M.M.M.M.M.M.M.M.M.M.M.M.M.M.M.M.M.M.M.M.M.M.M.M.M.M.M.M.M.M.M.M.M.M.M.M.M.M.M.M.M.M.M.M.M.M.M.M.M.M.M.M.M.M.M.M.M.M.M.M.M.M.",
"M.M.M.M.M.M.M.M.M.M.M.M.M.M.M.M.M.M.M.M.M.M.M.M.M.M.M.M.M.M.M.M.M.M.M.M.M.M.M.M.M.M.M.M.M.M.M.M.M.M.M.M.M.M.M.M.M.M.M.M.M.M.M.M.",
"M.M.M.M.M.M.M.M.M.M.M.M.M.M.M.M.M.M.M.M.M.M.M.M.M.M.M.M.M.M.M.M.M.M.M.M.M.M.M.M.M.M.M.M.M.M.M.M.M.M.M.M.M.M.M.M.M.M.M.M.M.M.M.M.",
"M.M.M.M.M.M.M.M.M.M.M.M.M.M.M.M.M.M.M.M.M.M.M.M.M.M.M.M.M.M.M.M.M.M.M.M.M.M.M.M.M.M.M.M.M.M.M.M.M.M.M.M.M.M.M.M.M.M.M.M.M.M.M.M.",
"M.M.M.M.M.M.M.M.M.M.M.M.M.M.M.M.M.M.M.M.M.M.M.M.M.M.M.M.M.M.M.M.M.M.M.M.M.M.M.M.M.M.M.M.M.M.M.M.M.M.M.M.M.M.M.M.M.M.M.M.M.M.M.M.",
"M.M.M.M.M.M.M.M.M.M.M.M.M.M.M.M.M.M.M.M.M.M.M.M.M.M.M.M.M.M.M.M.M.M.M.M.M.M.M.M.M.M.M.M.M.M.M.M.M.M.M.M.M.M.M.M.M.M.M.M.M.M.M.M.",
"M.M.M.M.M.M.M.M.M.M.M.M.M.M.M.M.M.M.M.M.M.M.M.M.M.M.M.M.M.M.M.M.M.M.M.M.M.M.M.M.M.M.M.M.M.M.M.M.M.M.M.M.M.M.M.M.M.M.M.M.M.M.M.M."
};
