/* XPM */
static char *cafd5a156af54992f80b0d68782b9ed7moR0XfrMyUXkVaMO[] = {
/* columns rows colors chars-per-pixel */
"64 64 206 2 ",
"   c #020201",
".  c #0A0200",
"X  c #020A01",
"o  c #0A0B03",
"O  c #02010B",
"+  c #090309",
"@  c #05090B",
"#  c #0D0B0C",
"$  c #120400",
"%  c #140C00",
"&  c #190B00",
"*  c #130A0B",
"=  c #0F1000",
"-  c #0A130E",
";  c #151202",
":  c #1D1100",
">  c #1B1F00",
",  c #17100A",
"<  c #19150C",
"1  c #020213",
"2  c #0B0412",
"3  c #010B12",
"4  c #0B0B13",
"5  c #01011B",
"6  c #09021C",
"7  c #04091D",
"8  c #100010",
"9  c #100D14",
"0  c #071214",
"q  c #11101E",
"w  c #151918",
"e  c #221401",
"r  c #2A1700",
"t  c #2A1B02",
"y  c #241B0C",
"u  c #2F0B17",
"i  c #2D2A03",
"p  c #26240D",
"a  c #322100",
"s  c #342C00",
"d  c #382E00",
"f  c #34220A",
"g  c #3E3100",
"h  c #272317",
"j  c #372413",
"k  c #3A3D10",
"l  c #0B0028",
"z  c #0F0A28",
"x  c #0A0023",
"c  c #12002C",
"v  c #413100",
"b  c #473E00",
"n  c #4E320B",
"m  c #533D0E",
"M  c #483517",
"N  c #403B15",
"B  c #413B23",
"V  c #4F4100",
"C  c #554A05",
"Z  c #4E401B",
"A  c #59461A",
"S  c #5C5519",
"D  c #654C09",
"F  c #634D1C",
"G  c #675617",
"H  c #776218",
"J  c #79711E",
"K  c #704C28",
"L  c #675120",
"P  c #705A20",
"I  c #72562E",
"U  c #7C6826",
"Y  c #7C7229",
"T  c #7E7323",
"R  c #756C35",
"E  c #7E7335",
"W  c #8B7E1E",
"Q  c #806F27",
"!  c #8D7A37",
"~  c #90773E",
"^  c #947B3A",
"/  c #947C32",
"(  c #907C41",
")  c #93890E",
"_  c #8A8424",
"`  c #968C2D",
"'  c #8B8330",
"]  c #958537",
"[  c #989237",
"{  c #A48F3C",
"}  c #A09031",
"|  c #A89030",
" . c #B6A83D",
".. c #BCB237",
"X. c #C1B63A",
"o. c #D2BD3E",
"O. c #CEC329",
"+. c #D1C539",
"@. c #E8D03A",
"#. c #F7D639",
"$. c #FCE638",
"%. c #978847",
"&. c #95844E",
"*. c #968156",
"=. c #A49542",
"-. c #B79E44",
";. c #AD9953",
":. c #B09A51",
">. c #ACA346",
",. c #B9A846",
"<. c #BBA553",
"1. c #B4B055",
"2. c #C5A74D",
"3. c #CEB74F",
"4. c #C7B647",
"5. c #D7BD4C",
"6. c #C8B654",
"7. c #D1BE5F",
"8. c #CDB66A",
"9. c #C5B671",
"0. c #DFCD4F",
"q. c #D4CA4F",
"w. c #DFD54F",
"e. c #D0C051",
"r. c #DFC15F",
"t. c #D7C85A",
"y. c #E9CA4D",
"u. c #F7CF49",
"i. c #F5CE43",
"p. c #EFD248",
"a. c #EDD247",
"s. c #F4D544",
"d. c #FAD347",
"f. c #F5DC44",
"g. c #FDDC45",
"h. c #F5D34D",
"j. c #FCD54D",
"k. c #F5DB4B",
"l. c #FCDC4D",
"z. c #EFCD52",
"x. c #EFCD5F",
"c. c #EED354",
"v. c #EDD65B",
"b. c #EAD556",
"n. c #F5D453",
"m. c #FBD553",
"M. c #F6DC53",
"N. c #FCDC54",
"B. c #F5D55C",
"V. c #FBD55D",
"C. c #F4DC5C",
"Z. c #FFDE59",
"A. c #F7E345",
"S. c #FCE245",
"D. c #F5E24E",
"F. c #FEE34C",
"G. c #FFE94C",
"H. c #F4E255",
"J. c #FEE354",
"K. c #FFE955",
"L. c #F5E15B",
"P. c #FFE15E",
"I. c #FEE35B",
"U. c #FFEA5B",
"Y. c #D2C26A",
"T. c #E7C964",
"R. c #FDCE61",
"E. c #EED961",
"W. c #ECD96A",
"Q. c #E4D669",
"!. c #F3D361",
"~. c #FCD562",
"^. c #F6DD64",
"/. c #FEDA61",
"(. c #FEDD61",
"). c #FEDE65",
"_. c #FDDC63",
"`. c #FED66B",
"'. c #F5DC6B",
"]. c #FFDC69",
"[. c #FEDD6A",
"{. c #F4D56B",
"}. c #E9D678",
"|. c #EBD87A",
" X c #FFD775",
".X c #F2DB73",
"XX c #FCDC74",
"oX c #F4D376",
"OX c #DFE060",
"+X c #F4E162",
"@X c #FFE260",
"#X c #FFE265",
"$X c #FEE463",
"%X c #FFE964",
"&X c #FEE26C",
"*X c #FFEB6B",
"=X c #F7E46C",
"-X c #FFF360",
";X c #FFF26E",
":X c #FFE571",
">X c #FFEC74",
",X c #FEE47A",
"<X c #FFED7D",
"1X c #FFF375",
"2X c #F6DD81",
"3X c #F8E487",
/* pixels */
"Z.Z.Z.Z.Z.Z.Z.Z.Z.Z.Z.Z.Z.Z.Z.Z.Z.Z.Z.Z.Z.Z.Z.Z.Z.Z.Z.Z.Z.Z.Z.Z.Z.Z.Z.Z.Z.Z.Z.Z.Z.Z.Z.Z.Z.Z.Z.Z.Z.Z.Z.Z.Z.Z.Z.Z.Z.Z.Z.Z.Z.Z.Z.Z.",
"Z.Z.Z.Z.Z.Z.Z.Z.Z.Z.Z.Z.Z.Z.Z.Z.Z.Z.Z.Z.Z.Z.Z.Z.Z.Z.Z.Z.Z.Z.Z.Z.Z.Z.Z.Z.Z.Z.Z.Z.Z.Z.Z.Z.Z.Z.Z.Z.Z.Z.Z.Z.Z.Z.Z.Z.Z.Z.Z.Z.Z.Z.Z.Z.",
"Z.Z.Z.Z.Z.Z.Z.Z.Z.Z.Z.Z.Z.Z.Z.Z.Z.Z.Z.Z.Z.Z.Z.Z.Z.Z.Z.Z.Z.Z.Z.Z.Z.Z.Z.Z.Z.Z.Z.Z.Z.Z.Z.Z.Z.Z.Z.Z.Z.Z.Z.Z.Z.Z.Z.Z.Z.Z.Z.Z.Z.Z.Z.Z.",
"Z.Z.Z.Z.Z.Z.Z.Z.Z.Z.Z.Z.Z.Z.Z.Z.Z.Z.Z.Z.Z.Z.Z.Z.Z.Z.Z.Z.Z.Z.Z.Z.Z.Z.Z.Z.Z.Z.Z.Z.Z.Z.Z.Z.Z.Z.Z.Z.Z.Z.Z.Z.Z.Z.Z.Z.Z.Z.Z.Z.Z.Z.Z.Z.",
"Z.Z.Z.Z.Z.Z.Z.Z.Z.Z.Z.Z.Z.Z.Z.Z.Z.Z.Z.Z.Z.Z.Z.Z.Z.Z.Z.Z.Z.Z.Z.Z.Z.Z.Z.Z.Z.Z.Z.Z.Z.Z.Z.Z.Z.Z.Z.Z.Z.Z.Z.Z.Z.Z.Z.Z.Z.Z.Z.Z.Z.Z.Z.Z.",
"Z.Z.Z.Z.Z.Z.Z.Z.Z.Z.Z.Z.Z.Z.Z.Z.Z.Z.Z.Z.Z.Z.Z.Z.Z.Z.Z.Z.Z.Z.Z.Z.Z.Z.Z.Z.Z.Z.Z.Z.Z.Z.Z.Z.Z.Z.Z.Z.Z.Z.Z.Z.Z.Z.Z.Z.Z.Z.Z.Z.Z.Z.Z.Z.",
"Z.Z.Z.Z.Z.Z.Z.Z.Z.Z.Z.Z.Z.Z.Z.Z.Z.Z.Z.Z.Z.Z.Z.Z.Z.Z.Z.Z.Z.Z.Z.Z.Z.Z.Z.Z.Z.Z.Z.Z.Z.Z.Z.Z.Z.Z.Z.Z.Z.Z.Z.Z.Z.Z.Z.Z.Z.Z.Z.Z.Z.Z.Z.Z.",
"Z.Z.Z.Z.Z.Z.Z.Z.Z.Z.Z.Z.Z.Z.Z.Z.Z.Z.Z.Z.Z.Z.Z.Z.Z.Z.Z.Z.Z.Z.Z.Z.Z.Z.Z.Z.Z.Z.Z.Z.Z.Z.Z.Z.Z.Z.Z.Z.Z.Z.Z.Z.Z.Z.Z.Z.Z.Z.Z.Z.Z.Z.Z.Z.",
"Z.Z.Z.Z.Z.Z.Z.Z.Z.Z.Z.Z.Z.Z.Z.Z.Z.Z.Z.Z.Z.Z.Z.Z.P.@XZ.M.M.J.J.J.I.J.J.N.Z.Z.Z./.Z.Z.Z.Z.Z.Z.Z.Z.Z.Z.Z.Z.Z.Z.Z.Z.Z.Z.Z.Z.Z.Z.Z.Z.",
"Z.Z.Z.Z.Z.Z.Z.Z.Z.Z.Z.Z.Z.Z.Z.Z.Z.Z.Z.Z.Z.Z.Z.Z.m.Z.P.P.P.P.P.N._.).(.P.Z.Z.Z.C.Z.Z.Z.Z.Z.Z.Z.Z.Z.Z.Z.Z.Z.Z.Z.Z.Z.Z.Z.Z.Z.Z.Z.Z.",
"Z.Z.Z.Z.Z.Z.Z.Z.Z.Z.Z.Z.Z.Z.Z.Z.Z.Z.Z.Z.Z.Z.Z.Z.I.I.I.Z.Z./././.Z.Z.I.J.J.K.K.K.Z.Z.Z.Z.Z.Z.Z.Z.Z.Z.Z.Z.Z.Z.Z.Z.Z.Z.Z.Z.Z.Z.Z.Z.",
"Z.Z.Z.Z.Z.Z.Z.Z.Z.Z.Z.Z.Z.Z.Z.Z.Z.Z.Z.Z.Z.Z.Z.Z.Z.Z.I.Z.Z.P.@X@XP.Z.Z.N.N.N.N.N.Z.Z.Z.Z.Z.Z.Z.Z.Z.Z.Z.Z.Z.Z.Z.Z.Z.Z.Z.Z.Z.Z.Z.Z.",
"Z.Z.Z.Z.Z.Z.Z.Z.Z.Z.Z.Z.Z.Z.Z.Z.Z.Z.Z.Z.Z.Z.Z.Z.(.Z.Z.N.N.l.d.s.Z.Z.Z._.).[.[.[.Z.Z.Z.Z.Z.Z.Z.Z.Z.Z.Z.Z.Z.Z.Z.Z.Z.Z.Z.Z.Z.Z.Z.Z.",
"Z.Z.Z.Z.Z.Z.Z.Z.Z.Z.Z.Z.Z.Z.Z.Z.Z.Z.Z.Z.Z.Z.Z.Z.).Z.Z.J.J.J.I.%XF.J.J.J.J.N.j.d.Z.Z.Z.Z.Z.Z.Z.Z.Z.Z.Z.Z.Z.Z.Z.Z.Z.Z.Z.Z.Z.Z.Z.Z.",
"Z.Z.Z.Z.Z.Z.Z.Z.Z.Z.Z.Z.Z.Z.Z.Z.Z.Z.Z.Z.Z.Z.Z.Z.Z.Z.Z.P.#X^.{..X+X^.C.C.M.J.F.G.Z.Z.Z.Z.Z.Z.Z.Z.Z.Z.Z.Z.Z.Z.Z.Z.Z.Z.Z.Z.Z.Z.Z.Z.",
"Z.Z.Z.Z.Z.Z.Z.Z.Z.Z.Z.Z.Z.Z.Z.Z.Z.Z.Z.Z.Z.Z.Z.Z.Z.I.P.C.5.| H D A A F U ] 2.T.:XZ.Z.Z.Z.Z.Z.Z.Z.Z.Z.Z.Z.Z.Z.Z.Z.Z.Z.Z.Z.Z.Z.Z.Z.",
"Z.Z.Z.Z.Z.Z.Z.Z.Z.Z.Z.Z.Z.Z.Z.Z.J._.:XN.j.[.P.$.Z.XX! p O O O   X         X > k [ Q.I.g.I.n.>Xn.Z.Z.Z.Z.Z.Z.Z.Z.Z.Z.Z.Z.Z.Z.Z.Z.",
"Z.Z.Z.Z.Z.Z.Z.Z.Z.Z.Z.Z.Z.Z.Z.Z.N.#X).N.I.Z.#XL.8.r % o   4     1 O O X     O 6 . $ K x.f.P.).J.Z.Z.Z.Z.Z.Z.Z.Z.Z.Z.Z.Z.Z.Z.Z.Z.",
"Z.Z.Z.Z.Z.Z.Z.Z.Z.Z.Z.Z.Z.Z.Z.Z.N.I.C.(.I.l.'.:.;   .           o     O 1 +     2 x u T.S.I.(.j.Z.Z.Z.Z.Z.Z.Z.Z.Z.Z.Z.Z.Z.Z.Z.Z.",
"Z.Z.Z.Z.Z.Z.Z.Z.Z.Z.Z.Z.Z.Z.Z.Z.I.k.Z.&Xl.K.6.j O O @ O #   @ @ O O           X X , L ^.G.s.Z.@XZ.Z.Z.Z.Z.Z.Z.Z.Z.Z.Z.Z.Z.Z.Z.Z.",
"Z.Z.Z.Z.Z.Z.Z.Z.Z.Z.Z.Z.Z.Z.Z.Z.Z.l.Z.).m.I.G + O O 4     o     +       + 4 7 5 1 . ..%XI.J.N.#XZ.Z.Z.Z.Z.Z.Z.Z.Z.Z.Z.Z.Z.Z.Z.Z.",
"Z.Z.Z.Z.Z.Z.Z.Z.Z.Z.Z.Z.Z.Z.Z.Z.m.I.N.Z.%X3.% 1       # .   i R _ ' R Z : .     l b L.!.,XI.F.n.Z.Z.Z.Z.Z.Z.Z.Z.Z.Z.Z.Z.Z.Z.Z.Z.",
"Z.Z.Z.Z.Z.Z.Z.Z.Z.Z.Z.Z.Z.Z.Z.Z.Z.P.I.l.&X^   3 . + O .   E 3Xv.^.M.k.J.%Xt.Y a . { @XV.&Xp.J.Z.Z.Z.Z.Z.Z.Z.Z.Z.Z.Z.Z.Z.Z.Z.Z.Z.",
"Z.Z.Z.Z.Z.Z.Z.Z.Z.Z.Z.Z.Z.Z.Z.Z.%Xz.I.F.B.I * X   4 1   N 2Xg.$.V.#X@Xm.h.N.I.+X,.E.Z.J.g.K.N.(.Z.Z.Z.Z.Z.Z.Z.Z.Z.Z.Z.Z.Z.Z.Z.Z.",
"Z.Z.Z.Z.Z.Z.Z.Z.Z.Z.Z.Z.Z.Z.Z.Z.J./.(.U.!.A . X X O 5   J H.I._.I.I.N.Z.I.I.N.l.Z.Z.Z.Z.Z.Z.Z.Z.Z.Z.Z.Z.Z.Z.Z.Z.Z.Z.Z.Z.Z.Z.Z.Z.",
"Z.Z.Z.Z.Z.Z.Z.Z.Z.Z.Z.Z.Z.Z.Z.Z.d.*XZ.l.>Xm   0 X O 1 < Y 0.l.j.C.Z.I.J.N.M.^.&XZ.Z.Z.Z.Z.Z.Z.Z.Z.Z.Z.Z.Z.Z.Z.Z.Z.Z.Z.Z.Z.Z.Z.Z.",
"Z.Z.Z.Z.Z.Z.Z.Z.Z.Z.Z.Z.Z.Z.Z.Z.N.#XI.s.#XF   1   O 2   s |.;Xg.I.N.N.I.$XZ.B.^.Z.Z.Z.Z.Z.Z.Z.Z.Z.Z.Z.Z.Z.Z.Z.Z.Z.Z.Z.Z.Z.Z.Z.Z.",
"Z.Z.Z.Z.Z.Z.Z.Z.Z.Z.Z.Z.Z.Z.Z.Z.I.m.I.k.C.! . 5 @     #   S }.+XF.K.P.B.B.&X%XJ.Z.Z.Z.Z.Z.Z.Z.Z.Z.Z.Z.Z.Z.Z.Z.Z.Z.Z.Z.Z.Z.Z.Z.Z.",
"Z.Z.Z.Z.Z.Z.Z.Z.Z.Z.Z.Z.Z.Z.Z.Z.N.N.I.J.*X,.. 7     o O 2 . r ;.~./.Z.J.F.J.Z.N.Z.Z.Z.Z.Z.Z.Z.Z.Z.Z.Z.Z.Z.Z.Z.Z.Z.Z.Z.Z.Z.Z.Z.Z.",
"Z.Z.Z.Z.Z.Z.Z.Z.Z.Z.Z.Z.Z.Z.Z.Z.N.J.I.N.Z.^.C     X   O 6 O * . n ;.,XK.#.F.@XR.Z.Z.Z.Z.Z.Z.Z.Z.Z.Z.Z.Z.Z.Z.Z.Z.Z.Z.Z.Z.Z.Z.Z.Z.",
"Z.Z.Z.Z.Z.Z.Z.Z.Z.Z.Z.Z.Z.Z.Z.Z.I.N.I.V.u.U.6.:     O O O     O +   d =..X).V.#XZ.Z.Z.Z.Z.Z.Z.Z.Z.Z.Z.Z.Z.Z.Z.Z.Z.Z.Z.Z.Z.Z.Z.Z.",
"Z.Z.Z.Z.Z.Z.Z.Z.Z.Z.Z.Z.Z.Z.Z.Z.N.J.N.&X%X#.>X&.  @ O   X X X O X 3 O . M <.I.$.Z.Z.Z.Z.Z.Z.Z.Z.Z.Z.Z.Z.Z.Z.Z.Z.Z.Z.Z.Z.Z.Z.Z.Z.",
"Z.Z.Z.Z.Z.Z.Z.Z.Z.Z.Z.Z.Z.Z.Z.Z.Z.Z.Z.Z.Z.Z.Z.Z.*.:   @     O + 1   o   z   S OXJ.l.P.Z.N.l.l.Z.Z.Z.Z.Z.Z.Z.Z.Z.Z.Z.Z.Z.Z.Z.Z.Z.",
"Z.Z.Z.Z.Z.Z.Z.Z.Z.Z.Z.Z.Z.Z.Z.Z.Z.Z.Z.Z.Z.Z.Z.Z.I.,.t + 5 O o X =     w     . e -.*Xl.V.&XF.g.).Z.Z.Z.Z.Z.Z.Z.Z.Z.Z.Z.Z.Z.Z.Z.Z.",
"Z.Z.Z.Z.Z.Z.Z.Z.Z.Z.Z.Z.Z.Z.Z.Z.Z.Z.Z.Z.Z.Z.Z.Z.#.*X2X~ e     O     O X X . 2 c f ,.H.&X[.g.S.[.Z.Z.Z.Z.Z.Z.Z.Z.Z.Z.Z.Z.Z.Z.Z.Z.",
"Z.Z.Z.Z.Z.Z.Z.Z.Z.Z.Z.Z.Z.Z.Z.Z.Z.Z.Z.Z.Z.Z.Z.Z.*Xm.j.k.b.' ; 2 6 1 O   - @     O s 0.$Xm.N.I.C.Z.Z.Z.Z.Z.Z.Z.Z.Z.Z.Z.Z.Z.Z.Z.Z.",
"Z.Z.Z.Z.Z.Z.Z.Z.Z.Z.Z.Z.Z.Z.Z.Z.Z.Z.Z.Z.Z.Z.Z.Z.M.N.Z.%Xm.^.}.U & .   O O @ . . 7   Q N.s.&X&XD.Z.Z.Z.Z.Z.Z.Z.Z.Z.Z.Z.Z.Z.Z.Z.Z.",
"Z.Z.Z.Z.Z.Z.Z.Z.Z.Z.Z.Z.Z.Z.Z.Z.Z.Z.Z.Z.Z.Z.Z.Z.H.C.V.#XZ.N.I.I.W.H &   9     4 @ 1 e v.F.&X[.G.Z.Z.Z.Z.Z.Z.Z.Z.Z.Z.Z.Z.Z.Z.Z.Z.",
"Z.Z.Z.Z.Z.Z.Z.Z.Z.Z.Z.Z.Z.Z.Z.Z.Z.Z.Z.Z.Z.Z.Z.Z.$Xy.*XI.s.K.N.n.F.$X<.e   + 4 O X + . 6.U.N.V.I.Z.Z.Z.Z.Z.Z.Z.Z.Z.Z.Z.Z.Z.Z.Z.Z.",
"Z.Z.Z.Z.Z.Z.Z.Z.Z.Z.Z.Z.Z.Z.Z.Z.Z.Z.Z.Z.Z.Z.Z.Z.g.$XV.(.$Xk.N.$X/.N.H.>.. 1 O X X   $ ( +XS.J.~.Z.Z.Z.Z.Z.Z.Z.Z.Z.Z.Z.Z.Z.Z.Z.Z.",
"Z.Z.Z.Z.Z.Z.Z.Z.Z.Z.Z.Z.Z.Z.Z.Z.C.G.g.Z.j. XS.Z.Z.Z.Z.I.J.J.J.L.&XZ.j.XXi - O     O   Y N.J.Z.C.Z.Z.Z.Z.Z.Z.Z.Z.Z.Z.Z.Z.Z.Z.Z.Z.",
"Z.Z.Z.Z.Z.Z.Z.Z.Z.Z.Z.Z.Z.Z.Z.Z.XX$Xm.).U.oXF.h.I.I.Z.h.h.Z.).[.I.#.l.<Xs   O *   6   T I.i.$XI.Z.Z.Z.Z.Z.Z.Z.Z.Z.Z.Z.Z.Z.Z.Z.Z.",
"Z.Z.Z.Z.Z.Z.Z.Z.Z.Z.Z.Z.Z.Z.Z.Z.[.Z.m._.o.P  .3Xc.P.$XI.I.$XP.j.S.g.J.r.t . @ .   5 + ` K.Z.V.J.Z.Z.Z.Z.Z.Z.Z.Z.Z.Z.Z.Z.Z.Z.Z.Z.",
"Z.Z.Z.Z.Z.Z.Z.Z.Z.Z.Z.Z.Z.Z.Z.Z.F.F.J.>Xe.. . y ) X.+X*X^._.[.:Xv.>X{.^ . O @   X 1   6.A.>X!.S.Z.Z.Z.Z.Z.Z.Z.Z.Z.Z.Z.Z.Z.Z.Z.Z.",
"Z.Z.Z.Z.Z.Z.Z.Z.Z.Z.Z.Z.Z.Z.Z.Z.F.J.N.C.t.2 # O 1 . t S [ 4.+.O.9.%.v .   O   X X + r '.A.^.:Xg.Z.Z.Z.Z.Z.Z.Z.Z.Z.Z.Z.Z.Z.Z.Z.Z.",
"Z.Z.Z.Z.Z.Z.Z.Z.Z.Z.Z.Z.Z.Z.Z.Z.c.].).N.q.      O O   .   . . $   .     q O O X   . / #XJ.@XC.J.Z.Z.Z.Z.Z.Z.Z.Z.Z.Z.Z.Z.Z.Z.Z.Z.",
"Z.Z.Z.Z.Z.Z.Z.Z.Z.Z.Z.Z.Z.Z.Z.Z.%X`./.J.w..   X O O O O O 1 5 5   +   O + +   X   V !.Z.P.U.a.).Z.Z.Z.Z.Z.Z.Z.Z.Z.Z.Z.Z.Z.Z.Z.Z.",
"Z.Z.Z.Z.Z.Z.Z.Z.Z.Z.Z.Z.Z.Z.Z.Z.f.I.$X#.+.8 O 1   +       X X         .   . .   h Y.N.@X@X@.-X~.Z.Z.Z.Z.Z.Z.Z.Z.Z.Z.Z.Z.Z.Z.Z.Z.",
"Z.Z.Z.Z.Z.Z.Z.Z.Z.Z.Z.Z.Z.Z.Z.Z.$XM.I.$X7.$ o 1 . .   O O O     @ O 1 1 O   ; B n.N.Z.Z.P.I.Z.Z.Z.Z.Z.Z.Z.Z.Z.Z.Z.Z.Z.Z.Z.Z.Z.Z.",
"Z.Z.Z.Z.Z.Z.Z.Z.Z.Z.Z.Z.Z.Z.Z.Z.Z.I.j.P.<X-.R :   O O O O @ X X     # + . g } =Xm.N.Z.Z.I.Z.Z.Z.Z.Z.Z.Z.Z.Z.Z.Z.Z.Z.Z.Z.Z.Z.Z.Z.",
"Z.Z.Z.Z.Z.Z.Z.Z.Z.Z.Z.Z.Z.Z.Z.Z.Z.Z.d.j.Z.$X:XW.1.[ S s & . . . r s C W 4.@X@Xm.N.Z.Z.Z.Z.Z.Z.Z.Z.Z.Z.Z.Z.Z.Z.Z.Z.Z.Z.Z.Z.Z.Z.Z.",
"Z.Z.Z.Z.Z.Z.Z.Z.Z.Z.Z.Z.Z.Z.Z.Z.P.Z.P.%XZ.j.s.F.g.g.N.I.%X%X$XP.E.&X=X^.V.Z.J.N.Z.Z.Z.Z.Z.Z.Z.Z.Z.Z.Z.Z.Z.Z.Z.Z.Z.Z.Z.Z.Z.Z.Z.Z.",
"Z.Z.Z.Z.Z.Z.Z.Z.Z.Z.Z.Z.Z.Z.Z.Z.M.n.Z.z.n.P.I.J.XX`.`.~.R.V./.(.J.J.l.N.I.I.Z.V.Z.Z.Z.Z.Z.Z.Z.Z.Z.Z.Z.Z.Z.Z.Z.Z.Z.Z.Z.Z.Z.Z.Z.Z.",
"Z.Z.Z.Z.Z.Z.Z.Z.Z.Z.Z.Z.Z.Z.Z.Z.M.P.1X).&X).#XV.A.F.K.K.I.L.L.L. X~.Z.G.G.F.L.&XZ.Z.Z.Z.Z.Z.Z.Z.Z.Z.Z.Z.Z.Z.Z.Z.Z.Z.Z.Z.Z.Z.Z.Z.",
"Z.Z.Z.Z.Z.Z.Z.Z.Z.Z.Z.Z.Z.Z.Z.Z.$Xm.h.V.*XP.P.V.'.'.$X$XL.D.A.A.I.Z.~.`.[.Z.A.S.Z.Z.Z.Z.Z.Z.Z.Z.Z.Z.Z.Z.Z.Z.Z.Z.Z.Z.Z.Z.Z.Z.Z.Z.",
"Z.Z.Z.Z.Z.Z.Z.Z.Z.Z.Z.Z.Z.Z.Z.Z.m.P.N.J.l.l.I.I.J.N.N.Z.Z.(./._.M.J.J.J.Z.Z.)._.Z.Z.Z.Z.Z.Z.Z.Z.Z.Z.Z.Z.Z.Z.Z.Z.Z.Z.Z.Z.Z.Z.Z.Z.",
"Z.Z.Z.Z.Z.Z.Z.Z.Z.Z.Z.Z.Z.Z.Z.Z.Z.Z.Z.Z.Z.Z.Z.Z.Z.Z.Z.Z.Z.Z.Z.Z.Z.Z.Z.Z.Z.Z.Z.Z.Z.Z.Z.Z.Z.Z.Z.Z.Z.Z.Z.Z.Z.Z.Z.Z.Z.Z.Z.Z.Z.Z.Z.Z.",
"Z.Z.Z.Z.Z.Z.Z.Z.Z.Z.Z.Z.Z.Z.Z.Z.Z.Z.Z.Z.Z.Z.Z.Z.Z.Z.Z.Z.Z.Z.Z.Z.Z.Z.Z.Z.Z.Z.Z.Z.Z.Z.Z.Z.Z.Z.Z.Z.Z.Z.Z.Z.Z.Z.Z.Z.Z.Z.Z.Z.Z.Z.Z.Z.",
"Z.Z.Z.Z.Z.Z.Z.Z.Z.Z.Z.Z.Z.Z.Z.Z.Z.Z.Z.Z.Z.Z.Z.Z.Z.Z.Z.Z.Z.Z.Z.Z.Z.Z.Z.Z.Z.Z.Z.Z.Z.Z.Z.Z.Z.Z.Z.Z.Z.Z.Z.Z.Z.Z.Z.Z.Z.Z.Z.Z.Z.Z.Z.Z.",
"Z.Z.Z.Z.Z.Z.Z.Z.Z.Z.Z.Z.Z.Z.Z.Z.Z.Z.Z.Z.Z.Z.Z.Z.Z.Z.Z.Z.Z.Z.Z.Z.Z.Z.Z.Z.Z.Z.Z.Z.Z.Z.Z.Z.Z.Z.Z.Z.Z.Z.Z.Z.Z.Z.Z.Z.Z.Z.Z.Z.Z.Z.Z.Z.",
"Z.Z.Z.Z.Z.Z.Z.Z.Z.Z.Z.Z.Z.Z.Z.Z.Z.Z.Z.Z.Z.Z.Z.Z.Z.Z.Z.Z.Z.Z.Z.Z.Z.Z.Z.Z.Z.Z.Z.Z.Z.Z.Z.Z.Z.Z.Z.Z.Z.Z.Z.Z.Z.Z.Z.Z.Z.Z.Z.Z.Z.Z.Z.Z.",
"Z.Z.Z.Z.Z.Z.Z.Z.Z.Z.Z.Z.Z.Z.Z.Z.Z.Z.Z.Z.Z.Z.Z.Z.Z.Z.Z.Z.Z.Z.Z.Z.Z.Z.Z.Z.Z.Z.Z.Z.Z.Z.Z.Z.Z.Z.Z.Z.Z.Z.Z.Z.Z.Z.Z.Z.Z.Z.Z.Z.Z.Z.Z.Z.",
"Z.Z.Z.Z.Z.Z.Z.Z.Z.Z.Z.Z.Z.Z.Z.Z.Z.Z.Z.Z.Z.Z.Z.Z.Z.Z.Z.Z.Z.Z.Z.Z.Z.Z.Z.Z.Z.Z.Z.Z.Z.Z.Z.Z.Z.Z.Z.Z.Z.Z.Z.Z.Z.Z.Z.Z.Z.Z.Z.Z.Z.Z.Z.Z.",
"Z.Z.Z.Z.Z.Z.Z.Z.Z.Z.Z.Z.Z.Z.Z.Z.Z.Z.Z.Z.Z.Z.Z.Z.Z.Z.Z.Z.Z.Z.Z.Z.Z.Z.Z.Z.Z.Z.Z.Z.Z.Z.Z.Z.Z.Z.Z.Z.Z.Z.Z.Z.Z.Z.Z.Z.Z.Z.Z.Z.Z.Z.Z.Z."
};
