/* XPM */
static char *_55f5f1e9bc94297cf38934677bf60b8k8dVYapI3uFLyiyO[] = {
/* columns rows colors chars-per-pixel */
"64 64 193 2 ",
"   c #020202",
".  c #0A0002",
"X  c #000A02",
"o  c #0B0B01",
"O  c #030509",
"+  c #0B020A",
"@  c #020B0A",
"#  c #0B090A",
"$  c #130102",
"%  c #1A0002",
"&  c #130209",
"*  c #011303",
"=  c #011A04",
"-  c #01160B",
";  c #0B110D",
":  c #031C0B",
">  c #001812",
",  c #0A1E15",
"<  c #002407",
"1  c #01250C",
"2  c #002A0B",
"3  c #00310C",
"4  c #012512",
"5  c #0E2312",
"6  c #032D14",
"7  c #0F2813",
"8  c #0B2719",
"9  c #0C2D1D",
"0  c #122416",
"q  c #172C19",
"w  c #023213",
"e  c #03351D",
"r  c #0C301B",
"t  c #023B1D",
"y  c #11371E",
"u  c #0D3521",
"i  c #143522",
"p  c #2C3E30",
"a  c #00431D",
"s  c #054522",
"d  c #004A25",
"f  c #034A2C",
"g  c #0C4C28",
"h  c #1B402F",
"j  c #005326",
"k  c #02552B",
"l  c #0A552E",
"z  c #015A2E",
"x  c #0F5A2F",
"c  c #1C4330",
"v  c #1D4933",
"b  c #0E5035",
"n  c #045A34",
"m  c #0B5C33",
"M  c #165634",
"N  c #1B533A",
"B  c #214430",
"V  c #214D34",
"C  c #314633",
"Z  c #29573B",
"A  c #00612E",
"S  c #026434",
"D  c #0B6237",
"F  c #016A33",
"G  c #0C6F36",
"H  c #00663B",
"J  c #0C6439",
"K  c #026E3B",
"L  c #176035",
"P  c #10683E",
"I  c #007236",
"U  c #02743B",
"Y  c #017A3E",
"T  c #056B43",
"R  c #136A48",
"E  c #047241",
"W  c #007940",
"Q  c #107B45",
"!  c #008437",
"~  c #00863E",
"^  c #008446",
"/  c #018C44",
"(  c #02864A",
")  c #0A844A",
"_  c #028D4E",
"`  c #0C8A4E",
"'  c #009444",
"]  c #009C47",
"[  c #01944D",
"{  c #009C4C",
"}  c #038555",
"|  c #0A8B51",
" . c #168C58",
".. c #029452",
"X. c #0B9354",
"o. c #029C55",
"O. c #009F58",
"+. c #0A9E5B",
"@. c #12985B",
"#. c #00A14D",
"$. c #00A352",
"%. c #00AE56",
"&. c #02A55B",
"*. c #0AA45C",
"=. c #01AB5B",
"-. c #0AA85E",
";. c #12A35E",
":. c #00B456",
">. c #00BA56",
",. c #01B55B",
"<. c #0BB65E",
"1. c #01BC5D",
"2. c #09BA5D",
"3. c #13B25E",
"4. c #1F9A64",
"5. c #03AC63",
"6. c #0BAD64",
"7. c #11A462",
"8. c #17AC6A",
"9. c #03B463",
"0. c #0CB663",
"q. c #00BF62",
"w. c #0ABC64",
"e. c #0BB569",
"r. c #03BD69",
"t. c #0FBF6C",
"y. c #0CBC6A",
"u. c #11B761",
"i. c #10B163",
"p. c #15B867",
"a. c #13BA65",
"s. c #1BB867",
"d. c #14B46A",
"f. c #17B56A",
"g. c #18B46A",
"h. c #17B868",
"j. c #12BE6D",
"k. c #16BF6C",
"l. c #14BD6A",
"z. c #18BD71",
"x. c #00C156",
"c. c #00C65B",
"v. c #00C55B",
"b. c #00C35D",
"n. c #00C15F",
"m. c #00C35E",
"M. c #00C45F",
"N. c #00C25E",
"B. c #00C060",
"V. c #01C160",
"C. c #00C062",
"Z. c #00C063",
"A. c #01C063",
"S. c #00C163",
"D. c #00C162",
"F. c #03C062",
"G. c #00C362",
"H. c #04C262",
"J. c #00C762",
"K. c #04C461",
"L. c #00C164",
"P. c #00C165",
"I. c #03C064",
"U. c #02C164",
"Y. c #01C265",
"T. c #03C265",
"R. c #00C067",
"E. c #00C367",
"W. c #04C366",
"Q. c #06C065",
"!. c #01C564",
"~. c #05C467",
"^. c #01C363",
"/. c #08C060",
"(. c #0AC265",
"). c #00CA63",
"_. c #00C866",
"`. c #00C964",
"'. c #09C966",
"]. c #06C168",
"[. c #00C66A",
"{. c #03C36D",
"}. c #07C26D",
"|. c #05C76E",
" X c #02C46A",
".X c #0AC36A",
"XX c #01C96A",
"oX c #0ECC6C",
"OX c #13C16A",
"+X c #00D262",
"@X c #0EC170",
"#X c #01C870",
"$X c #12C372",
/* pixels */
"q.q.q.q.q.q.q.q.q.q.q.q.q.q.q.q.q.q.q.q.q.q.q.q.q.q.q.q.q.q.q.q.q.q.q.q.q.q.q.q.q.q.q.q.q.q.q.q.q.q.q.q.q.q.q.q.q.q.q.q.q.q.q.q.",
"q.q.q.q.q.q.q.q.q.q.q.q.q.q.q.q.q.q.q.q.q.q.q.q.q.q.q.q.q.q.q.q.q.q.q.q.q.q.q.q.q.q.q.q.q.q.q.q.q.q.q.q.q.q.q.q.q.q.q.q.q.q.q.q.",
"q.q.q.q.q.q.q.q.q.q.q.q.q.q.q.q.q.q.q.q.q.q.q.q.q.q.q.q.q.q.q.q.q.q.q.q.q.q.q.q.q.q.q.q.q.q.q.q.q.q.q.q.q.q.q.q.q.q.q.q.q.q.q.q.",
"q.q.q.q.q.q.q.q.q.q.q.q.q.q.q.q.q.q.q.q.q.q.q.q.q.q.q.q.q.q.q.q.q.q.q.q.q.q.q.q.q.q.q.q.q.q.q.q.q.q.q.q.q.q.q.q.q.q.q.q.q.q.q.q.",
"q.q.q.q.q.q.q.q.q.q.q.q.q.q.q.q.q.q.q.q.q.q.q.q.q.q.q.q.q.q.q.q.q.q.q.q.q.q.q.q.q.q.q.q.q.q.q.q.q.q.q.q.q.q.q.q.q.q.q.q.q.q.q.q.",
"q.q.q.q.q.q.q.q.q.q.q.q.q.q.q.q.q.q.q.q.q.q.q.q.q.q.q.q.q.q.q.q.q.q.q.q.q.q.q.q.q.q.q.q.q.q.q.q.q.q.q.q.q.q.q.q.q.q.q.q.q.q.q.q.",
"q.q.q.q.q.q.q.q.q.q.q.q.q.q.q.q.q.q.q.q.q.q.q.q.q.q.q.q.q.q.q.q.q.q.q.q.q.q.q.q.q.q.q.q.q.q.q.q.q.q.q.q.q.q.q.q.q.q.q.q.q.q.q.q.",
"q.q.q.q.q.q.q.q.q.q.q.q.q.q.q.q.q.q.q.q.q.q.q.q.q.q.q.q.q.q.q.q.q.q.q.q.q.q.q.q.q.q.q.q.q.q.q.q.q.q.q.q.q.q.q.q.q.q.q.q.q.q.q.q.",
"q.q.q.q.q.q.q.q.B.B.1.1.1.1.B.B.q.q.q.q.q.q.q.q.q.q.q.q.q.q.q.W.q.q.q.q.q.q.q.q.q.q.q.q.q.q.q.q.B.B.1.1.1.1.B.B.q.q.q.q.q.q.q.q.",
"q.q.q.q.q.q.q.q.B.q.q.q.q.q.q.B.q.q.q.q.q.q.q.q.T.T.B.q.q.q.q.q.1.1.q.q.q.T.T.T.q.q.q.q.q.q.q.q.B.q.q.q.q.q.q.B.q.q.q.q.q.q.q.q.",
"q.q.q.q.q.q.q.q.1.1.1.1.1.1.1.1.q.q.q.q.q.q.q.q.B.B.B.B.B.B.T.T.B.B.B.B.T.q.q.q.q.q.q.q.q.q.q.q.1.1.1.1.1.1.1.1.q.q.q.q.q.q.q.q.",
"q.q.q.q.q.q.q.q.T.T.T.W.W.T.T.T.q.q.q.q.q.q.q.q.q.q.q.q.B.B.B.B.B.B.B.q.q.q.q.q.q.q.q.q.q.q.q.q.T.T.T.W.W.T.T.T.q.q.q.q.q.q.q.q.",
"q.q.q.q.q.q.q.q.q.q.B.B.B.B.q.q.q.q.q.q.q.q.q.q.q.q.q.q.q.q.1.1.1.1.1.1.q.q.q.q.q.q.q.q.q.q.q.q.q.q.B.B.B.B.q.q.q.q.q.q.q.q.q.q.",
"q.q.q.q.q.q.q.q.q.q.q.q.q.q.q.q.q.q.q.q.q.q.q.q.q.q.B.W.W.W.W.q.q.q.q.q.q.q.q.q.q.q.q.q.q.q.q.q.q.q.q.q.q.q.q.q.q.q.q.q.q.q.q.q.",
"q.q.q.q.q.q.q.q.y.w.w.w.w.w.w.y.q.q.q.q.q.q.q.q.q.q.q.q.w.w.w.0.0.w.w.w.q.q.q.q.q.q.q.q.q.q.q.q.y.w.w.w.w.w.w.y.q.q.q.q.q.q.q.q.",
"q.q.q.q.q.q.q.q.$.#.{ { { { #.$.q.q.q.q.q.q.q.q.T.T.q.,.%.$.#.{ { #.#.%.:.q.T.~.q.q.q.q.q.q.q.q.$.#.{ { { { #.$.q.q.q.q.q.q.q.q.",
"q.q.q.q.q.q.q.q.[ . .     X . O j.>.).1.$Xq.B.(.q.B.1.|.i   #   O     7 #Xq.q.w.c.0.9.T.1.'.1.t.> .   . @   . ~ q.q.q.q.q.q.q.q.",
"q.q.q.q.q.q.q.q.&.  +   O X . O +.q.J.1.}.q.q.F.q.!.1.9.4       O     = 9.q.B.w.c.0.q.T.1.K.q.&.X .   O       &.q.q.q.q.q.q.q.q.",
"q.q.q.q.q.q.q.q.q.1 #   O   . O U [.n.<.T.q.w.J.q._.1.o.X O   .       X [ }.T.1.c.w.q.T.1.1.].Y O .   #   # = y.q.q.q.q.q.q.q.q.",
"q.q.q.q.q.q.q.q.[.k     .   .   a {.B.u.B. Xh.J.q.!.y.K   O   .     .   A $XB.1.n.w.q.T.1.1.j.j O .   O   @ a q.q.q.q.q.q.q.q.q.",
"q.q.q.q.q.q.q.q.!.` X +   . .   1 e.F.a.B.q.h.n.q.n.k.a       . . O     w z.B.B.n.q.T.T.w.1.f.w + .       X W B.q.q.q.q.q.q.q.q.",
"q.q.q.q.q.q.q.q.n.6.* #   . O   X X.Q.(.B.q.y.1.q.n.0.= O       . @     X 7.n.n.B.1.T.~.2.J.+.*   .       X *._.q.q.q.q.q.q.q.q.",
"q.q.q.q.q.q.q.q.1.q.e     .       K Q.B.B.q.W.1.w.B.{ .     O   . O     . ^ B.1.q.q.T.~.:._.^           . 4 r.J.q.q.q.q.q.q.q.q.",
"q.q.q.q.q.q.q.q.N.q.N   X .       k q.M.q.q. Xq.w.J.~ $   + O   .       % F B.1.q.q.!.~.:._.U . +       . c  Xv.q.q.q.q.q.q.q.q.",
"q.q.q.q.q.q.q.q.0.J.$..   +       : {.q._.1.q.9.<.XX6 $ O     X o   . X . : !.h.q.T.B.1.T.#X5       +   . { _.0.q.q.q.q.q.q.q.q.",
"q.q.q.q.q.q.q.q.w.J.=.X O         * 9.,._.>.!.q.q.r.= . O     4 1   . X . * 9.w.q.[.1.B.q.q.*       . O   &.J.w.q.q.q.q.q.q.q.q.",
"q.q.q.q.q.q.q.q.w.J.y.6 O   O       _ 9.!.:.!.q.T...  . O . o d d & . O .   _ q.q.|.:.!.q.o.      O . O 1 0.J.w.q.q.q.q.q.q.q.q.",
"q.q.q.q.q.q.q.q.q.J.].m     O       S w.B.1.J.q.[.A . . @ $   K W . . O .   k  X1.|.:.!.q.U             l w.).q.q.q.q.q.q.q.q.q.",
"q.q.q.q.q.q.q.q.q.).q.` X         . w y.1.W.n.q.}.3 .   @ $   ..O.    O .   1 r.q.J.2.q.y.a             ) q._.q.q.q.q.q.q.q.q.q.",
"q.q.q.q.q.q.q.q.q.J.1.6.* O       . * 9.1.~.1.q.6.* .     . X 6.9.X       . X +.q.n.w.1.9.= .       O * -.>.!.q.q.q.q.q.q.q.q.q.",
"q.q.q.q.q.q.q.q.q.1.B.{.r O       . . { w.q.1.q.)           6 e.y.w       .   E B.n.w.w.$.  .         9 q.B.1.9.q.q.q.q.q.q.q.q.",
"q.q.q.q.q.q.q.q.y.:._.XXv       O . $ ! OX:.B.q.A .   + . X g 9.e.j       . X k T.B.2.y.' . .         B [.!.>.w.q.q.q.q.q.q.q.q.",
"q.q.q.q.q.q.q.q.[.>.OX9.$.o   O X $ $ u _.:.y.B.,     .   . / w.]./ .         - q.s.1.T.d & . @ O   . { y.,.B.q.q.q.q.q.q.q.q.q.",
"q.q.q.q.q.q.q.q.T.1.y.9.,.*       . . : q.1.q.,.@     . #   &.9.W.&.X O       X &.y.B.q.2 . .     O   =.q.,.J.q.q.q.q.q.q.q.q.q.",
"q.q.q.q.q.q.q.q.T.q.q.q. Xw       O     *.!.q./       . X < t.q.q.}.1 O     .   Y q.B.=.X         # 1 }.q.1.J.q.q.q.q.q.q.q.q.q.",
"q.q.q.q.q.q.q.q.q.q.q.!.[.J   . . O     Q [.q.j   .   .   j }.1.>.|.z       .   t r.B./ $   #       k #XB.1.n.q.q.q.q.q.q.q.q.q.",
"q.q.q.q.q.q.q.q. Xq.q._.q.@.  . $ X @ . g [.y.<   .       ( q.F.1.q.|       .   * r.B.A % O         | T.J.B.1.Q.q.q.q.q.q.q.q.q.",
"q.q.q.q.q.q.q.q.T.q.q._.>.t.*   . X O . 1 q.6.X   .       6.:.(.F.1.e.X   O .     5.q.w . O O .   X e.,.J.q.1.].q.q.q.q.q.q.q.q.",
"q.q.q.q.q.q.q.q.q.T.2.B.q.[.y   .       X 5...          0 {.1./.q.B.[.q   O       ( 9.o   . O .   r {.,.B.:.B.q.q.q.q.q.q.q.q.q.",
"q.q.q.q.q.q.q.q.1.~.<.1.~.!.Z X   O .     &.W .         p T.n.2.>._.T.C   O       F 6.$ X . O $ X V [.q.q.:.[.q.q.q.q.q.q.q.q.q.",
"q.q.q.q.q.q.q.q.9.k.M.).<.XX&..   O . . X R f           o.2.1.q.2.T. Xo.. o     . h }     $     . o.!.3.J.1.l.q.q.q.q.q.q.q.q.q.",
"q.q.q.q.q.q.q.q.q.l.n.J.<.[.5.=   O   . X b e         X &.1.!.q.2.!.q.5.X         8 H     .   O o &.[.<.B.1.y.T.q.q.q.q.q.q.q.q.",
"q.q.q.q.q.q.q.q.q.w.n.J.<.[.9.s .         9 *     .   6 e.1._.q.1.[.q.y.w   . O   X e         O e 9.XX0.n.1.y.T.q.q.q.q.q.q.q.q.",
"q.q.q.q.q.q.q.q.T.9.1.B.<.!.q.U . .       ;       .   n w.n.!.q.1.T.q.@XD   .   X   - . .   .   S q._.2.B.n.w.q.q.q.q.q.q.q.q.q.",
"q.q.q.q.q.q.q.q.T.q.q.F.w.T. Xo.. .       & .     . X | ,.).1.T.B.1.!.r.X.X .   O .   . .   .   [ T.T.1.B.!.q.q.q.q.q.q.q.q.q.q.",
"q.q.q.q.q.q.q.q.B.q.q.q.q.B.T.,.-   .     . .     . * 6.>.).:.T.T.:.~.q.9.= .     . .   .   . * ,.T.q.1.T.!.q.1.q.q.q.q.q.q.q.q.",
"q.q.q.q.q.q.q.q.q.q.Q.q.q.T.q.q.d X .       .     . u  X1.M.:.r.T.,.W.q.!.t .     . . X .   . t J.q.q.q.q.!.q.q.q.q.q.q.q.q.q.q.",
"q.q.q.q.q.q.q.q.1.q.].q.n.T.w.B.T X $ . X         . v [.K.x.:.r.T.<.1.F._.M .     .   X $   & n ).q.y.q.q.q.1.W.q.q.q.q.q.q.q.q.",
"q.q.q.q.q.q.q.q.q.q.q.q.q.q.q.q.5.= . O   & . X % X  .9.1.1..X:.q.w.B.1.9.4.X $     &   @ . X o.q.q.q.q.q.q.q.q.q.q.q.q.q.q.q.q.",
"q.q.q.q.q.q.q.q.q.q.q.q.q.q.q.q.;.2 .     . . X   < 7.T._.1.W.q.q.q.1.!.[.8.2 X     .     . = ;.q.q.q.q.q.q.q.q.q.q.q.q.q.q.q.q.",
"q.q.q.q.q.q.q.q.q.q.q.q.q.q.q.q.!.U L S S J k F n I y.n.J.1.B.[.T.T.>.).J.y.Y S S z P H S x G ~.q.q.q.q.q.q.q.q.q.q.q.q.q.q.q.q.",
"q.q.q.q.q.q.q.q.q.q.q.q.q.q.q.q.+X:.0.r.[.}.,.q.g.,._.>.M.1.q.[.T.~.>.).>.B.w.f.q.,. X[. Xe.:.+Xq.q.q.q.q.q.q.q.q.q.q.q.q.q.q.q.",
"q.q.q.q.q.q.q.q.q.q.q.q.q.q.q.q.v.q.y.1.J.T.>.~.B.B.J.>.~.F.1.q.,.W.q.oX1.1.!.B.'.>.B.J.1.y.F.M.q.q.q.q.q.q.q.q.q.q.q.q.q.q.q.q.",
"q.q.q.q.q.q.q.q.q.q.q.q.q.q.q.q.1.y.0.1.1.1.1.w.>.n.J.B.Q.1.1.w.q.q.1.Q.q.B.J.>.1.<.B.J.:.2.~.(.q.q.q.q.q.q.q.q.q.q.q.q.q.q.q.q.",
"q.q.q.q.q.q.q.q.q.q.q.q.q.q.q.q.1.q.q.T.T.J.J.1.B.!.q.q.1.1.B.W.W.1.1.1.q.Q.F.B.1.w._._.w.1.J.1.q.q.q.q.q.q.q.q.q.q.q.q.q.q.q.q.",
"q.q.q.q.q.q.q.q.q.q.q.q.q.q.q.q. Xq.q.w.w.q.[.q.T.q.,.T.T.!.J.>.1.n._.q.q.w.,.T.T.l.1.1.a.T.!.9.q.q.q.q.q.q.q.q.q.q.q.q.q.q.q.q.",
"q.q.q.q.q.q.q.q.q.q.q.q.q.q.q.q.q.q.q.q.q.q.q.q.q.q.q.q.q.q.q.q.q.q.q.q.q.q.q.q.q.q.q.q.q.q.q.q.q.q.q.q.q.q.q.q.q.q.q.q.q.q.q.q.",
"q.q.q.q.q.q.q.q.q.q.q.q.q.q.q.q.q.q.q.q.q.q.q.q.q.q.q.q.q.q.q.q.q.q.q.q.q.q.q.q.q.q.q.q.q.q.q.q.q.q.q.q.q.q.q.q.q.q.q.q.q.q.q.q.",
"q.q.q.q.q.q.q.q.q.q.q.q.q.q.q.q.q.q.q.q.q.q.q.q.q.q.q.q.q.q.q.q.q.q.q.q.q.q.q.q.q.q.q.q.q.q.q.q.q.q.q.q.q.q.q.q.q.q.q.q.q.q.q.q.",
"q.q.q.q.q.q.q.q.q.q.q.q.q.q.q.q.q.q.q.q.q.q.q.q.q.q.q.q.q.q.q.q.q.q.q.q.q.q.q.q.q.q.q.q.q.q.q.q.q.q.q.q.q.q.q.q.q.q.q.q.q.q.q.q.",
"q.q.q.q.q.q.q.q.q.q.q.q.q.q.q.q.q.q.q.q.q.q.q.q.q.q.q.q.q.q.q.q.q.q.q.q.q.q.q.q.q.q.q.q.q.q.q.q.q.q.q.q.q.q.q.q.q.q.q.q.q.q.q.q.",
"q.q.q.q.q.q.q.q.q.q.q.q.q.q.q.q.q.q.q.q.q.q.q.q.q.q.q.q.q.q.q.q.q.q.q.q.q.q.q.q.q.q.q.q.q.q.q.q.q.q.q.q.q.q.q.q.q.q.q.q.q.q.q.q.",
"q.q.q.q.q.q.q.q.q.q.q.q.q.q.q.q.q.q.q.q.q.q.q.q.q.q.q.q.q.q.q.q.q.q.q.q.q.q.q.q.q.q.q.q.q.q.q.q.q.q.q.q.q.q.q.q.q.q.q.q.q.q.q.q.",
"q.q.q.q.q.q.q.q.q.q.q.q.q.q.q.q.q.q.q.q.q.q.q.q.q.q.q.q.q.q.q.q.q.q.q.q.q.q.q.q.q.q.q.q.q.q.q.q.q.q.q.q.q.q.q.q.q.q.q.q.q.q.q.q."
};
